<svg width="512" height="512" viewBox="0 0 512 512" xmlns="http://www.w3.org/2000/svg">

  <!-- Fondo -->
  <rect width="512" height="512" fill="#000000"/>

  <!-- Marco -->
  <rect x="10" y="10" width="492" height="492"
        fill="none"
        stroke="#D4AF37"
        stroke-width="14"
        rx="28"/>

  <!-- Máscara GRANDE y centrada real -->
  <g fill="none"
     stroke="#D4AF37"
     stroke-width="12"
     stroke-linecap="round"
     stroke-linejoin="round">

    <!-- Contorno principal -->
    <path d="
      M160 190
      Q256 125 352 190
      L330 330
      Q256 375 182 330
      Z" />

    <!-- Refuerzos laterales -->
    <path d="M160 190 L140 280 L182 330" />
    <path d="M352 190 L372 280 L330 330" />

    <!-- Visor izquierdo -->
    <path d="
      M200 240
      Q230 220 256 240
      Q230 270 200 240
      Z" />

    <!-- Visor derecho -->
    <path d="
      M312 240
      Q282 220 256 240
      Q282 270 312 240
      Z" />

    <!-- Filtro grande -->
    <circle cx="256" cy="300" r="38"/>
    <circle cx="256" cy="300" r="22"/>
    <line x1="256" y1="275" x2="256" y2="325"/>
    <line x1="231" y1="300" x2="281" y2="300"/>

    <!-- Extensión de cuello más amplia y centrada -->
    <path d="
      M205 330
      Q256 385 307 330
      L320 400
      Q256 430 192 400
      Z" />

  </g>

</svg>
