<svg width="512" height="512" viewBox="0 0 512 512" xmlns="http://www.w3.org/2000/svg">

  <!-- Fondo negro -->
  <rect width="512" height="512" fill="#000000"/>

  <!-- Borde dorado -->
  <rect x="10" y="10" width="492" height="492"
        fill="none"
        stroke="#D4AF37"
        stroke-width="14"
        rx="28"/>

  <!-- Grupo centrado y escalado -->
  <g fill="none"
     stroke="#D4AF37"
     stroke-width="8"
     stroke-linecap="round"
     stroke-linejoin="round"
     transform="translate(256 260) scale(1.18) translate(-256 -260)">

    <!-- Contorno superior máscara -->
    <path d="
      M176 210
      Q256 150 336 210
      L318 320
      Q256 350 194 320
      Z" />

    <!-- Refuerzo lateral izquierdo -->
    <path d="M176 210 L160 285 L194 320" />

    <!-- Refuerzo lateral derecho -->
    <path d="M336 210 L352 285 L318 320" />

    <!-- Visor izquierdo -->
    <path d="
      M205 240
      Q230 225 255 240
      Q230 260 205 240
      Z" />

    <!-- Visor derecho -->
    <path d="
      M307 240
      Q282 225 257 240
      Q282 260 307 240
      Z" />

    <!-- Filtro central externo -->
    <circle cx="256" cy="295" r="26"/>

    <!-- Rejilla interna filtro -->
    <circle cx="256" cy="295" r="16"/>
    <line x1="256" y1="279" x2="256" y2="311"/>
    <line x1="240" y1="295" x2="272" y2="295"/>

    <!-- Extensión de cuello estilizada -->
    <path d="
      M210 320
      Q256 365 302 320
      L312 380
      Q256 405 200 380
      Z" />

  </g>

</svg>
