<svg xmlns="http://www.w3.org/2000/svg" viewBox="0 0 7410 3900" role="img" aria-labelledby="title">
  <title id="title">Bandera de Estados Unidos</title>
  <rect width="7410" height="3900" fill="#b22234"/>
  <path d="M0 300h7410v300H0zm0 600h7410v300H0zm0 600h7410v300H0zm0 600h7410v300H0zm0 600h7410v300H0zm0 600h7410v300H0" fill="#fff"/>
  <rect width="2964" height="2100" fill="#3c3b6e"/>
  <g fill="#fff">
    <g id="s18">
      <g id="s9">
        <g id="s5">
          <circle cx="247" cy="210" r="70"/>
          <circle cx="741" cy="210" r="70"/>
          <circle cx="1235" cy="210" r="70"/>
          <circle cx="1729" cy="210" r="70"/>
          <circle cx="2223" cy="210" r="70"/>
          <circle cx="2717" cy="210" r="70"/>
        </g>
        <use href="#s5" y="420"/>
      </g>
      <use href="#s9" y="840"/>
    </g>
    <use href="#s18" y="1680"/>
    <g id="s8">
      <circle cx="494" cy="420" r="70"/>
      <circle cx="988" cy="420" r="70"/>
      <circle cx="1482" cy="420" r="70"/>
      <circle cx="1976" cy="420" r="70"/>
      <circle cx="2470" cy="420" r="70"/>
    </g>
    <use href="#s8" y="840"/>
    <use href="#s8" y="1680"/>
  </g>
</svg>
